<svg xmlns="http://www.w3.org/2000/svg" width="82.9" height="62.362" viewBox="0 0 82.9 62.362">
  <g id="_1" data-name="1" transform="translate(-29.1 -40.338)">
    <g id="Group_6748" data-name="Group 6748">
      <path id="Path_10841" data-name="Path 10841" d="M84.7,49.6V79.2a.778.778,0,0,1-1.1.7A148.007,148.007,0,0,0,42.4,68.1,1.617,1.617,0,0,1,41,66.5V53.8a1.617,1.617,0,0,1,1.4-1.6A150.439,150.439,0,0,0,83.6,40.4a.778.778,0,0,1,1.1.7v2.5S84.7,49.6,84.7,49.6Z" fill="#0084ff"/>
    </g>
    <g id="Group_6749" data-name="Group 6749">
      <path id="Path_10842" data-name="Path 10842" d="M86.9,42H82.8a4.715,4.715,0,0,0-4.4,3.3A129.844,129.844,0,0,1,39.8,56.7a4.687,4.687,0,0,0-2.9,1.6H33.6a4.481,4.481,0,0,0-4.5,4.5V71a4.481,4.481,0,0,0,4.5,4.5H37a4.259,4.259,0,0,0,2.9,1.6h.3l6.2,22.3a4.53,4.53,0,0,0,4.4,3.3h8.9a1.8,1.8,0,0,0,0-3.6L54.2,80a122.828,122.828,0,0,1,24.3,8.7A4.418,4.418,0,0,0,82.9,92H87a4.481,4.481,0,0,0,4.5-4.5v-41A4.633,4.633,0,0,0,86.9,42Zm-31,57.4H50.8a.961.961,0,0,1-.9-.7L44,77.8c2.1.3,4.1.7,6.2,1.2ZM80.1,55.6a1.793,1.793,0,0,0-1.8,1.8V84.6A134.219,134.219,0,0,0,40.4,73.7a1.055,1.055,0,0,1-.9-.9V61.2a.9.9,0,0,1,.9-.9A137.725,137.725,0,0,0,78.3,49.4V52a1.8,1.8,0,0,0,3.6,0V46.5a1,1,0,0,1,1-1H87a1,1,0,0,1,1,1v41a1,1,0,0,1-1,1H82.9a1,1,0,0,1-1-1V57.4A1.793,1.793,0,0,0,80.1,55.6ZM36,61.9V72H33.7a1,1,0,0,1-1-1V62.8a1,1,0,0,1,1-1H36Z" fill="#0e0f0f"/>
      <path id="Path_10843" data-name="Path 10843" d="M110.2,65.2H96.5a1.8,1.8,0,0,0,0,3.6h13.7A1.793,1.793,0,0,0,112,67,1.859,1.859,0,0,0,110.2,65.2Z" fill="#0e0f0f"/>
      <path id="Path_10844" data-name="Path 10844" d="M104.7,55.7a1.7,1.7,0,0,0,.7-.1l1.4-.6a1.746,1.746,0,1,0-1.4-3.2l-1.4.6a1.721,1.721,0,0,0-.9,2.3A1.846,1.846,0,0,0,104.7,55.7Z" fill="#0e0f0f"/>
      <path id="Path_10845" data-name="Path 10845" d="M96.5,59.2a1.7,1.7,0,0,0,.7-.1l4.1-1.8a1.949,1.949,0,0,0,1-1A1.746,1.746,0,0,0,100,54l-4.1,1.8a1.949,1.949,0,0,0-1,1,1.708,1.708,0,0,0,0,1.4A1.676,1.676,0,0,0,96.5,59.2Z" fill="#0e0f0f"/>
      <path id="Path_10846" data-name="Path 10846" d="M106.8,79l-1.4-.6a1.7,1.7,0,0,0-1.4,0,1.949,1.949,0,0,0-1,1,1.7,1.7,0,0,0,0,1.4,1.651,1.651,0,0,0,1,1l1.4.6a1.7,1.7,0,0,0,.7.1,1.622,1.622,0,0,0,1.6-1.1,1.7,1.7,0,0,0,0-1.4A1.789,1.789,0,0,0,106.8,79Z" fill="#0e0f0f"/>
      <path id="Path_10847" data-name="Path 10847" d="M101.3,76.7l-4.1-1.8a1.746,1.746,0,1,0-1.4,3.2l4.1,1.8a1.7,1.7,0,0,0,.7.1,1.622,1.622,0,0,0,1.6-1.1,1.7,1.7,0,0,0,0-1.4A1.2,1.2,0,0,0,101.3,76.7Z" fill="#0e0f0f"/>
    </g>
  </g>
</svg>
